<svg width="151" height="66" viewBox="0 0 151 66" fill="none" xmlns="http://www.w3.org/2000/svg">
<rect y="24" width="22" height="1" fill="white"/>
<rect y="31" width="22" height="1" fill="white"/>
<rect y="38" width="22" height="1" fill="white"/>
<path d="M36 3H100V4H36V3Z" fill="white"/>
<path fill-rule="evenodd" clip-rule="evenodd" d="M122.064 22.5725C125.223 23.178 127.273 24.1423 128.582 25.2679C131.111 27.4434 133.059 31.3541 134.177 33.9938C134.887 35.6708 136.175 37.0324 137.823 37.6607L146.47 40.9593C148.201 41.6195 149.631 42.9959 150.119 44.8658C150.547 46.5018 150.989 48.7573 151 51.1219C151.011 53.4824 150.591 56.0023 149.245 58.1207L149.067 58.4004H132.783V57.1847H148.401C149.444 55.3904 149.805 53.246 149.795 51.1274C149.785 48.9017 149.367 46.7548 148.955 45.1757C148.582 43.7479 147.474 42.642 146.044 42.0965L137.397 38.7979C135.401 38.0367 133.89 36.4089 133.07 34.4716C131.953 31.8356 130.095 28.1669 127.8 26.1932C126.874 25.3962 125.216 24.6752 122.919 24.046C122.169 23.8403 121.396 23.7405 120.619 23.6956C115.686 23.4108 107.781 22.619 103.877 23.178V21.749C108.501 21.749 111.529 21.9504 122.064 22.5725Z" fill="white"/>
<path fill-rule="evenodd" clip-rule="evenodd" d="M122.96 26.1213L115.769 25.0859C114.464 24.8981 113.334 25.995 113.484 27.3045L114.232 33.8629C114.34 34.8047 115.09 35.5435 116.034 35.6362L129.035 36.914C130.714 37.0791 131.838 35.2273 130.916 33.814L127.993 29.3321C126.855 27.5879 125.021 26.418 122.96 26.1213ZM115.883 24.2897C114.057 24.0268 112.475 25.5624 112.685 27.3957L113.433 33.9541C113.584 35.2726 114.634 36.307 115.955 36.4368L128.956 37.7146C131.307 37.9456 132.88 35.3532 131.59 33.3745L128.666 28.8927C127.402 26.9546 125.365 25.6548 123.075 25.3251L115.883 24.2897Z" fill="white"/>
<path d="M74.4746 53.5674H115.556V54.3729H74.4746V53.5674Z" fill="white"/>
<path d="M68.7314 57.2969H119.191L119.966 58.4823H68.7314V57.2969Z" fill="white"/>
<path d="M32 57H55.6369L55.6371 58.19H32V57Z" fill="white"/>
<path d="M134.791 53.3696H149.673V54.0956H134.791V53.3696Z" fill="white"/>
<path d="M113.88 40.8687H117.5V42.0769H113.88V40.8687Z" fill="white"/>
<path fill-rule="evenodd" clip-rule="evenodd" d="M148.661 45.2695C145.078 43.0812 142.74 42.5415 141.548 42.4303C141.511 42.4268 141.495 42.4354 141.493 42.4365C141.493 42.4366 141.492 42.4367 141.492 42.4368C141.492 42.4386 141.491 42.4418 141.49 42.4469C141.489 42.4569 141.488 42.4845 141.502 42.5312C141.908 43.9066 142.674 45.537 143.964 45.9474C144.362 46.0739 144.681 46.1862 144.987 46.2937C145.909 46.6178 146.709 46.8988 149.167 47.3995C149.465 47.4601 149.626 47.3847 149.693 47.3304C149.752 47.2831 149.795 47.2127 149.806 47.0847C149.83 46.8046 149.672 46.0472 148.661 45.2695ZM149.04 44.4284C145.363 42.1773 142.918 41.5941 141.606 41.4718C140.966 41.4121 140.55 42.1163 140.769 42.8598C141.186 44.2711 142.071 46.338 143.769 46.8781C144.153 47.0002 144.466 47.1102 144.769 47.2167C145.7 47.5437 146.537 47.8379 149.04 48.3479C150.818 48.71 151.372 46.1944 149.04 44.4284Z" fill="white"/>
<path fill-rule="evenodd" clip-rule="evenodd" d="M126.384 64.1777C129.93 64.1777 132.805 61.3029 132.805 57.7568C132.805 54.2107 129.93 51.336 126.384 51.336C122.838 51.336 119.963 54.2107 119.963 57.7568C119.963 61.3029 122.838 64.1777 126.384 64.1777ZM126.384 65.1655C130.476 65.1655 133.793 61.8485 133.793 57.7568C133.793 53.6651 130.476 50.3481 126.384 50.3481C122.293 50.3481 118.976 53.6651 118.976 57.7568C118.976 61.8485 122.293 65.1655 126.384 65.1655Z" fill="white"/>
<path fill-rule="evenodd" clip-rule="evenodd" d="M126.387 61.2141C128.296 61.2141 129.844 59.6662 129.844 57.7567C129.844 55.8473 128.296 54.2993 126.387 54.2993C124.477 54.2993 122.929 55.8473 122.929 57.7567C122.929 59.6662 124.477 61.2141 126.387 61.2141ZM126.387 62.2019C128.842 62.2019 130.832 60.2117 130.832 57.7567C130.832 55.3017 128.842 53.3115 126.387 53.3115C123.932 53.3115 121.941 55.3017 121.941 57.7567C121.941 60.2117 123.932 62.2019 126.387 62.2019Z" fill="white"/>
<path fill-rule="evenodd" clip-rule="evenodd" d="M62.1762 64.1777C65.7224 64.1777 68.5971 61.3029 68.5971 57.7568C68.5971 54.2107 65.7224 51.336 62.1762 51.336C58.6301 51.336 55.7554 54.2107 55.7554 57.7568C55.7554 61.3029 58.6301 64.1777 62.1762 64.1777ZM62.1762 65.1655C66.2679 65.1655 69.5849 61.8485 69.5849 57.7568C69.5849 53.6651 66.2679 50.3481 62.1762 50.3481C58.0846 50.3481 54.7676 53.6651 54.7676 57.7568C54.7676 61.8485 58.0846 65.1655 62.1762 65.1655Z" fill="white"/>
<path fill-rule="evenodd" clip-rule="evenodd" d="M62.1776 61.2146C64.0871 61.2146 65.635 59.6667 65.635 57.7572C65.635 55.8478 64.0871 54.2998 62.1776 54.2998C60.2682 54.2998 58.7202 55.8478 58.7202 57.7572C58.7202 59.6667 60.2682 61.2146 62.1776 61.2146ZM62.1776 62.2024C64.6326 62.2024 66.6228 60.2122 66.6228 57.7572C66.6228 55.3022 64.6326 53.312 62.1776 53.312C59.7226 53.312 57.7324 55.3022 57.7324 57.7572C57.7324 60.2122 59.7226 62.2024 62.1776 62.2024Z" fill="white"/>
<path fill-rule="evenodd" clip-rule="evenodd" d="M101.465 1.21008H34.5352C33.9751 1.21008 33.5211 1.57127 33.5211 2.01681V45.9832C33.5211 46.4287 33.9751 46.7899 34.5352 46.7899H101.465C102.025 46.7899 102.479 46.4287 102.479 45.9832V2.01681C102.479 1.57127 102.025 1.21008 101.465 1.21008ZM34.5352 0C33.1351 0 32 0.902955 32 2.01681V45.9832C32 47.097 33.1351 48 34.5352 48H101.465C102.865 48 104 47.097 104 45.9832V2.01681C104 0.902955 102.865 0 101.465 0H34.5352Z" fill="white"/>
<path d="M54.3369 44.3042H97.0297V45.1097H54.3369V44.3042Z" fill="white"/>
<path fill-rule="evenodd" clip-rule="evenodd" d="M122.064 22.573C125.223 23.1785 127.273 24.1428 128.582 25.2684C131.111 27.4438 133.059 31.3546 134.177 33.9943C134.887 35.6712 136.175 37.0329 137.823 37.6612L146.47 40.9598C148.201 41.62 149.631 42.9964 150.119 44.8662C150.547 46.5023 150.989 48.7578 151 51.1224C151.011 53.4829 150.591 56.0028 149.245 58.1212L149.067 58.4009H132.783V57.1852H148.401C149.444 55.3909 149.805 53.2465 149.795 51.1279C149.785 48.9022 149.367 46.7553 148.955 45.1762C148.582 43.7484 147.474 42.6425 146.044 42.097L137.397 38.7984C135.401 38.0372 133.89 36.4093 133.07 34.472C131.953 31.836 130.095 28.1674 127.8 26.1937C126.874 25.3966 125.216 24.6757 122.919 24.0464C122.169 23.8408 121.396 23.741 120.619 23.6961C115.686 23.4113 107.781 22.6195 103.877 23.1785V21.7495C108.501 21.7495 111.529 21.9509 122.064 22.573Z" fill="white"/>
<path fill-rule="evenodd" clip-rule="evenodd" d="M122.96 26.1218L115.769 25.0864C114.464 24.8986 113.334 25.9955 113.484 27.305L114.232 33.8634C114.34 34.8052 115.09 35.544 116.034 35.6367L129.035 36.9145C130.714 37.0795 131.838 35.2278 130.916 33.8145L127.993 29.3326C126.855 27.5884 125.021 26.4185 122.96 26.1218ZM115.883 24.2902C114.057 24.0273 112.475 25.5629 112.685 27.3962L113.433 33.9546C113.584 35.2731 114.634 36.3075 115.955 36.4373L128.956 37.7151C131.307 37.9461 132.88 35.3537 131.59 33.375L128.666 28.8931C127.402 26.9551 125.365 25.6552 123.075 25.3255L115.883 24.2902Z" fill="white"/>
<path d="M74.4746 53.5679H115.556V54.3734H74.4746V53.5679Z" fill="white"/>
<path d="M68.7305 57.2974H119.19L119.965 58.4827H68.7305V57.2974Z" fill="white"/>
<path d="M134.791 53.3701H149.673V54.0961H134.791V53.3701Z" fill="white"/>
<path d="M113.88 40.8691H117.5V42.0774H113.88V40.8691Z" fill="white"/>
<path fill-rule="evenodd" clip-rule="evenodd" d="M148.661 45.27C145.078 43.0817 142.74 42.542 141.548 42.4308C141.511 42.4273 141.495 42.4359 141.493 42.437C141.493 42.4371 141.492 42.4372 141.492 42.4373C141.492 42.4391 141.491 42.4423 141.49 42.4474C141.489 42.4574 141.488 42.485 141.502 42.5317C141.908 43.9071 142.674 45.5375 143.964 45.9478C144.362 46.0744 144.681 46.1867 144.987 46.2942C145.909 46.6183 146.709 46.8993 149.167 47.4C149.465 47.4606 149.626 47.3851 149.693 47.3309C149.752 47.2836 149.795 47.2132 149.806 47.0852C149.83 46.8051 149.672 46.0477 148.661 45.27ZM149.04 44.4289C145.363 42.1778 142.918 41.5946 141.606 41.4723C140.966 41.4126 140.55 42.1167 140.769 42.8603C141.186 44.2716 142.071 46.3385 143.769 46.8786C144.153 47.0007 144.466 47.1107 144.769 47.2172C145.7 47.5442 146.537 47.8384 149.04 48.3484C150.818 48.7105 151.372 46.1949 149.04 44.4289Z" fill="white"/>
<path fill-rule="evenodd" clip-rule="evenodd" d="M126.384 64.1781C129.93 64.1781 132.805 61.3034 132.805 57.7573C132.805 54.2112 129.93 51.3365 126.384 51.3365C122.838 51.3365 119.963 54.2112 119.963 57.7573C119.963 61.3034 122.838 64.1781 126.384 64.1781ZM126.384 65.166C130.476 65.166 133.793 61.849 133.793 57.7573C133.793 53.6656 130.476 50.3486 126.384 50.3486C122.293 50.3486 118.976 53.6656 118.976 57.7573C118.976 61.849 122.293 65.166 126.384 65.166Z" fill="white"/>
<path fill-rule="evenodd" clip-rule="evenodd" d="M126.387 61.2146C128.296 61.2146 129.844 59.6667 129.844 57.7572C129.844 55.8478 128.296 54.2998 126.387 54.2998C124.477 54.2998 122.929 55.8478 122.929 57.7572C122.929 59.6667 124.477 61.2146 126.387 61.2146ZM126.387 62.2024C128.842 62.2024 130.832 60.2122 130.832 57.7572C130.832 55.3022 128.842 53.312 126.387 53.312C123.932 53.312 121.941 55.3022 121.941 57.7572C121.941 60.2122 123.932 62.2024 126.387 62.2024Z" fill="white"/>
<path fill-rule="evenodd" clip-rule="evenodd" d="M62.1762 64.1781C65.7224 64.1781 68.5971 61.3034 68.5971 57.7573C68.5971 54.2112 65.7224 51.3365 62.1762 51.3365C58.6301 51.3365 55.7554 54.2112 55.7554 57.7573C55.7554 61.3034 58.6301 64.1781 62.1762 64.1781ZM62.1762 65.166C66.2679 65.166 69.5849 61.849 69.5849 57.7573C69.5849 53.6656 66.2679 50.3486 62.1762 50.3486C58.0845 50.3486 54.7676 53.6656 54.7676 57.7573C54.7676 61.849 58.0845 65.166 62.1762 65.166Z" fill="white"/>
<path fill-rule="evenodd" clip-rule="evenodd" d="M62.1776 61.2151C64.0871 61.2151 65.635 59.6672 65.635 57.7577C65.635 55.8482 64.0871 54.3003 62.1776 54.3003C60.2682 54.3003 58.7202 55.8482 58.7202 57.7577C58.7202 59.6672 60.2682 61.2151 62.1776 61.2151ZM62.1776 62.2029C64.6326 62.2029 66.6228 60.2127 66.6228 57.7577C66.6228 55.3027 64.6326 53.3125 62.1776 53.3125C59.7226 53.3125 57.7324 55.3027 57.7324 57.7577C57.7324 60.2127 59.7226 62.2029 62.1776 62.2029Z" fill="white"/>
<path d="M36 44H100V45H36V44Z" fill="white"/>
<path d="M56.94 22.065C56.1687 22.065 55.471 21.8917 54.847 21.545C54.2317 21.1983 53.742 20.6913 53.378 20.024C53.014 19.348 52.832 18.542 52.832 17.606C52.832 16.2887 53.0703 15.1273 53.547 14.122C54.0323 13.1167 54.6867 12.341 55.51 11.795C56.342 11.249 57.2607 10.976 58.266 10.976C59.0373 10.976 59.7307 11.1493 60.346 11.496C60.97 11.8427 61.464 12.354 61.828 13.03C62.192 13.6973 62.374 14.499 62.374 15.435C62.374 16.7523 62.1313 17.9137 61.646 18.919C61.1693 19.9243 60.515 20.7 59.683 21.246C58.8597 21.792 57.9453 22.065 56.94 22.065ZM57.07 20.531C57.746 20.531 58.3397 20.323 58.851 19.907C59.371 19.491 59.7697 18.9147 60.047 18.178C60.3243 17.4327 60.463 16.592 60.463 15.656C60.463 14.6247 60.2463 13.8447 59.813 13.316C59.3797 12.7787 58.8207 12.51 58.136 12.51C57.4687 12.51 56.8793 12.718 56.368 13.134C55.8567 13.5413 55.458 14.1177 55.172 14.863C54.886 15.5997 54.743 16.4403 54.743 17.385C54.743 18.4163 54.9597 19.2007 55.393 19.738C55.8263 20.2667 56.3853 20.531 57.07 20.531ZM64.0333 22.065C63.704 22.065 63.47 21.8917 63.3313 21.545C63.2013 21.1983 63.1363 20.6437 63.1363 19.881C63.1363 18.7543 63.2967 17.684 63.6173 16.67C63.6953 16.4187 63.821 16.2367 63.9943 16.124C64.1763 16.0027 64.4277 15.942 64.7483 15.942C64.9217 15.942 65.043 15.9637 65.1123 16.007C65.1817 16.0503 65.2163 16.1327 65.2163 16.254C65.2163 16.3927 65.1513 16.7047 65.0213 17.19C64.9347 17.5367 64.8653 17.84 64.8133 18.1C64.7613 18.36 64.718 18.6807 64.6833 19.062C64.9693 18.3167 65.29 17.71 65.6453 17.242C66.0007 16.774 66.3473 16.4403 66.6853 16.241C67.032 16.0417 67.3483 15.942 67.6343 15.942C68.1977 15.942 68.4793 16.2237 68.4793 16.787C68.4793 17.125 68.384 17.736 68.1933 18.62C68.0287 19.374 67.9463 19.8723 67.9463 20.115C67.9463 20.4617 68.072 20.635 68.3233 20.635C68.4967 20.635 68.7003 20.531 68.9343 20.323C69.177 20.1063 69.4977 19.7597 69.8963 19.283C70.0003 19.1617 70.1173 19.101 70.2473 19.101C70.36 19.101 70.4467 19.153 70.5073 19.257C70.5767 19.361 70.6113 19.504 70.6113 19.686C70.6113 20.0327 70.529 20.3013 70.3643 20.492C69.9917 20.9513 69.5887 21.3283 69.1553 21.623C68.7307 21.9177 68.2453 22.065 67.6993 22.065C67.2573 22.065 66.9237 21.9393 66.6983 21.688C66.473 21.428 66.3603 21.0553 66.3603 20.57C66.3603 20.3273 66.421 19.894 66.5423 19.27C66.655 18.724 66.7113 18.347 66.7113 18.139C66.7113 18.0003 66.6637 17.931 66.5683 17.931C66.4557 17.931 66.2953 18.0783 66.0873 18.373C65.888 18.659 65.68 19.0403 65.4633 19.517C65.2553 19.9937 65.0863 20.4963 64.9563 21.025C64.861 21.4323 64.7483 21.7097 64.6183 21.857C64.497 21.9957 64.302 22.065 64.0333 22.065ZM74.4865 19.101C74.5992 19.101 74.6859 19.153 74.7465 19.257C74.8159 19.361 74.8505 19.504 74.8505 19.686C74.8505 20.0327 74.7682 20.3013 74.6035 20.492C74.2309 20.9513 73.8235 21.3283 73.3815 21.623C72.9482 21.9177 72.4542 22.065 71.8995 22.065C71.1369 22.065 70.5692 21.7183 70.1965 21.025C69.8325 20.3317 69.6505 19.4347 69.6505 18.334C69.6505 17.2767 69.7849 16.072 70.0535 14.72C70.3309 13.368 70.7339 12.2067 71.2625 11.236C71.7999 10.2653 72.4369 9.78 73.1735 9.78C73.5895 9.78 73.9145 9.975 74.1485 10.365C74.3912 10.7463 74.5125 11.2967 74.5125 12.016C74.5125 13.0473 74.2265 14.2433 73.6545 15.604C73.0825 16.9647 72.3069 18.3123 71.3275 19.647C71.3882 20.0023 71.4879 20.258 71.6265 20.414C71.7652 20.5613 71.9472 20.635 72.1725 20.635C72.5279 20.635 72.8399 20.5353 73.1085 20.336C73.3772 20.128 73.7195 19.777 74.1355 19.283C74.2395 19.1617 74.3565 19.101 74.4865 19.101ZM72.8875 11.067C72.6882 11.067 72.4629 11.4267 72.2115 12.146C71.9602 12.8653 71.7392 13.758 71.5485 14.824C71.3579 15.89 71.2539 16.9127 71.2365 17.892C71.8519 16.878 72.3415 15.864 72.7055 14.85C73.0695 13.8273 73.2515 12.8957 73.2515 12.055C73.2515 11.3963 73.1302 11.067 72.8875 11.067ZM78.3498 15.942C78.5491 15.942 78.6878 15.968 78.7658 16.02C78.8438 16.072 78.8828 16.1587 78.8828 16.28C78.8828 16.488 78.7701 17.229 78.5448 18.503C78.3454 19.725 78.2284 20.4487 78.1938 20.674C77.8731 22.9013 77.4311 24.665 76.8678 25.965C76.3044 27.265 75.5548 27.915 74.6188 27.915C74.1768 27.915 73.8171 27.7763 73.5398 27.499C73.2624 27.2303 73.1238 26.875 73.1238 26.433C73.1238 26.0257 73.2148 25.6097 73.3968 25.185C73.5874 24.7603 73.9341 24.2707 74.4368 23.716C74.9481 23.17 75.6674 22.5417 76.5948 21.831L76.6338 21.532C76.6944 21.2113 76.7638 20.752 76.8418 20.154C76.6684 20.778 76.4258 21.2547 76.1138 21.584C75.8018 21.9047 75.4724 22.065 75.1258 22.065C74.7358 22.065 74.4151 21.8873 74.1638 21.532C73.9211 21.168 73.7998 20.7173 73.7998 20.18C73.7998 19.53 73.8431 18.9363 73.9298 18.399C74.0164 17.853 74.1594 17.2767 74.3588 16.67C74.4454 16.41 74.5668 16.2237 74.7228 16.111C74.8788 15.9983 75.1258 15.942 75.4638 15.942C75.6544 15.942 75.7844 15.9723 75.8538 16.033C75.9318 16.0937 75.9708 16.1847 75.9708 16.306C75.9708 16.3753 75.9231 16.6093 75.8278 17.008C75.7411 17.3287 75.6718 17.619 75.6198 17.879C75.5504 18.2343 75.4898 18.5767 75.4378 18.906C75.3858 19.2267 75.3598 19.491 75.3598 19.699C75.3598 20.0283 75.4508 20.193 75.6328 20.193C75.7628 20.193 75.9231 20.063 76.1138 19.803C76.3131 19.543 76.5211 19.1487 76.7378 18.62C76.9631 18.0913 77.1798 17.4413 77.3878 16.67C77.4571 16.41 77.5611 16.2237 77.6998 16.111C77.8471 15.9983 78.0638 15.942 78.3498 15.942ZM74.7618 26.654C74.9784 26.654 75.2211 26.4027 75.4898 25.9C75.7584 25.3973 76.0271 24.561 76.2958 23.391C75.6284 23.9543 75.1431 24.4657 74.8398 24.925C74.5451 25.393 74.3978 25.8003 74.3978 26.147C74.3978 26.2943 74.4238 26.4157 74.4758 26.511C74.5364 26.6063 74.6318 26.654 74.7618 26.654Z" fill="white"/>
<path d="M68.232 31.384C68.4313 31.384 68.5743 31.4273 68.661 31.514C68.7563 31.6007 68.804 31.7133 68.804 31.852C68.804 32.0773 68.7347 32.2767 68.596 32.45C68.466 32.6233 68.258 32.7143 67.972 32.723C67.2787 32.7403 66.6633 32.6883 66.126 32.567C65.5107 33.8583 64.7653 34.933 63.89 35.791C63.0233 36.6403 62.1523 37.065 61.277 37.065C60.3757 37.065 59.704 36.5407 59.262 35.492C58.82 34.4433 58.599 33.0263 58.599 31.241C58.599 29.7157 58.7073 28.3463 58.924 27.133C59.002 26.6823 59.1103 26.379 59.249 26.223C59.3963 26.0583 59.6433 25.976 59.99 25.976C60.562 25.976 60.848 26.223 60.848 26.717C60.848 26.769 60.8393 26.8643 60.822 27.003C60.562 28.563 60.432 29.9757 60.432 31.241C60.432 32.567 60.5403 33.5767 60.757 34.27C60.9823 34.9547 61.316 35.297 61.758 35.297C62.2087 35.297 62.6983 34.985 63.227 34.361C63.7557 33.737 64.241 32.9527 64.683 32.008C64.1543 31.6787 63.7557 31.254 63.487 30.734C63.2183 30.2053 63.084 29.5987 63.084 28.914C63.084 28.2293 63.188 27.653 63.396 27.185C63.6127 26.7083 63.903 26.353 64.267 26.119C64.6397 25.885 65.0513 25.768 65.502 25.768C66.0567 25.768 66.4943 25.9673 66.815 26.366C67.1443 26.7647 67.309 27.3107 67.309 28.004C67.309 29.0007 67.0923 30.0883 66.659 31.267C67.1183 31.345 67.6427 31.384 68.232 31.384ZM64.397 28.823C64.397 29.6723 64.67 30.3007 65.216 30.708C65.554 29.7373 65.723 28.9357 65.723 28.303C65.723 27.939 65.6753 27.6747 65.58 27.51C65.4847 27.3367 65.3547 27.25 65.19 27.25C64.956 27.25 64.7653 27.3887 64.618 27.666C64.4707 27.9347 64.397 28.3203 64.397 28.823ZM68.6175 37.065C68.0802 37.065 67.6512 36.87 67.3305 36.48C67.0099 36.09 66.8495 35.5787 66.8495 34.946C66.8495 34.2527 67.0099 33.5983 67.3305 32.983C67.6512 32.359 68.0759 31.8607 68.6045 31.488C69.1419 31.1067 69.7095 30.916 70.3075 30.916C70.4982 30.916 70.6239 30.955 70.6845 31.033C70.7539 31.1023 70.8102 31.2323 70.8535 31.423C71.0355 31.3883 71.2262 31.371 71.4255 31.371C71.8502 31.371 72.0625 31.5227 72.0625 31.826C72.0625 32.008 71.9975 32.4413 71.8675 33.126C71.6682 34.1227 71.5685 34.816 71.5685 35.206C71.5685 35.336 71.5989 35.44 71.6595 35.518C71.7289 35.596 71.8155 35.635 71.9195 35.635C72.0842 35.635 72.2835 35.531 72.5175 35.323C72.7515 35.1063 73.0679 34.7597 73.4665 34.283C73.5705 34.1617 73.6875 34.101 73.8175 34.101C73.9302 34.101 74.0169 34.153 74.0775 34.257C74.1469 34.361 74.1815 34.504 74.1815 34.686C74.1815 35.0327 74.0992 35.3013 73.9345 35.492C73.5792 35.934 73.2022 36.3067 72.8035 36.61C72.4049 36.9133 72.0192 37.065 71.6465 37.065C71.3605 37.065 71.0962 36.9697 70.8535 36.779C70.6195 36.5797 70.4419 36.311 70.3205 35.973C69.8699 36.701 69.3022 37.065 68.6175 37.065ZM69.0855 35.752C69.2762 35.752 69.4582 35.6393 69.6315 35.414C69.8049 35.1887 69.9305 34.8897 70.0085 34.517L70.4895 32.125C70.1255 32.1337 69.7875 32.2723 69.4755 32.541C69.1722 32.801 68.9295 33.1477 68.7475 33.581C68.5655 34.0143 68.4745 34.4737 68.4745 34.959C68.4745 35.2277 68.5265 35.427 68.6305 35.557C68.7432 35.687 68.8949 35.752 69.0855 35.752ZM74.048 37.065C73.7186 37.065 73.4846 36.8917 73.346 36.545C73.216 36.1983 73.151 35.6437 73.151 34.881C73.151 33.7543 73.3113 32.684 73.632 31.67C73.71 31.4187 73.8356 31.2367 74.009 31.124C74.191 31.0027 74.4423 30.942 74.763 30.942C74.9363 30.942 75.0576 30.9637 75.127 31.007C75.1963 31.0503 75.231 31.1327 75.231 31.254C75.231 31.3927 75.166 31.7047 75.036 32.19C74.9493 32.5367 74.88 32.84 74.828 33.1C74.776 33.36 74.7326 33.6807 74.698 34.062C74.984 33.3167 75.3046 32.71 75.66 32.242C76.0153 31.774 76.362 31.4403 76.7 31.241C77.0466 31.0417 77.363 30.942 77.649 30.942C78.2123 30.942 78.494 31.2237 78.494 31.787C78.494 32.125 78.3986 32.736 78.208 33.62C78.0433 34.374 77.961 34.8723 77.961 35.115C77.961 35.4617 78.0866 35.635 78.338 35.635C78.5113 35.635 78.715 35.531 78.949 35.323C79.1916 35.1063 79.5123 34.7597 79.911 34.283C80.015 34.1617 80.132 34.101 80.262 34.101C80.3746 34.101 80.4613 34.153 80.522 34.257C80.5913 34.361 80.626 34.504 80.626 34.686C80.626 35.0327 80.5436 35.3013 80.379 35.492C80.0063 35.9513 79.6033 36.3283 79.17 36.623C78.7453 36.9177 78.26 37.065 77.714 37.065C77.272 37.065 76.9383 36.9393 76.713 36.688C76.4876 36.428 76.375 36.0553 76.375 35.57C76.375 35.3273 76.4356 34.894 76.557 34.27C76.6696 33.724 76.726 33.347 76.726 33.139C76.726 33.0003 76.6783 32.931 76.583 32.931C76.4703 32.931 76.31 33.0783 76.102 33.373C75.9026 33.659 75.6946 34.0403 75.478 34.517C75.27 34.9937 75.101 35.4963 74.971 36.025C74.8756 36.4323 74.763 36.7097 74.633 36.857C74.5116 36.9957 74.3166 37.065 74.048 37.065ZM81.9922 37.351C81.5415 37.351 81.1949 37.247 80.9522 37.039C80.7182 36.831 80.6012 36.597 80.6012 36.337C80.6012 36.1117 80.6835 35.9167 80.8482 35.752C81.0129 35.5873 81.2555 35.505 81.5762 35.505C81.6889 35.505 81.8189 35.518 81.9662 35.544C82.1222 35.5613 82.2392 35.5743 82.3172 35.583C82.3085 35.3577 82.2565 35.1453 82.1612 34.946C82.0745 34.7467 81.9619 34.556 81.8232 34.374C81.6845 34.1833 81.5545 34.0187 81.4332 33.88C81.1645 34.3913 80.8959 34.816 80.6272 35.154C80.3672 35.492 80.0812 35.8127 79.7692 36.116C79.6132 36.272 79.4485 36.35 79.2752 36.35C79.1365 36.35 79.0239 36.3023 78.9372 36.207C78.8505 36.103 78.8072 35.9773 78.8072 35.83C78.8072 35.6567 78.8679 35.4963 78.9892 35.349L79.1582 35.141C79.6349 34.5517 79.9945 34.0663 80.2372 33.685C80.3932 33.4337 80.5492 33.1347 80.7052 32.788C80.8699 32.4413 81.0822 31.969 81.3422 31.371C81.5069 30.9897 81.8492 30.799 82.3692 30.799C82.6119 30.799 82.7809 30.8207 82.8762 30.864C82.9715 30.9073 83.0192 30.9767 83.0192 31.072C83.0192 31.124 83.0019 31.2063 82.9672 31.319C82.9325 31.4317 82.8849 31.5443 82.8242 31.657C82.6682 31.969 82.5902 32.2333 82.5902 32.45C82.5902 32.58 82.6335 32.723 82.7202 32.879C82.8155 33.035 82.9585 33.23 83.1492 33.464C83.4265 33.828 83.6345 34.14 83.7732 34.4C83.9205 34.6513 83.9942 34.9287 83.9942 35.232C83.9942 35.596 83.9075 35.9427 83.7342 36.272C83.5695 36.5927 83.3355 36.8527 83.0322 37.052C82.7289 37.2513 82.3822 37.351 81.9922 37.351Z" fill="white"/>
</svg>
