<svg width="21" height="17" viewBox="0 0 21 17" fill="none" xmlns="http://www.w3.org/2000/svg">
<path d="M6.36451 14.875C5.47931 14.875 4.59412 14.1313 4.15152 13.8125C1.93853 12.325 1.27463 11.7938 0.832031 11.475V15.9375C0.832031 16.5242 1.32753 17 1.93853 17H10.7905C11.4015 17 11.897 16.5242 11.897 15.9375V11.475C11.4544 11.7938 10.7905 12.325 8.5775 13.8125C8.1349 14.1313 7.24971 14.875 6.36451 14.875ZM10.7905 8.5H1.93853C1.32753 8.5 0.832031 8.9758 0.832031 9.5625V10.0938C1.71723 10.7313 1.60658 10.7312 4.81542 12.9625C5.14736 13.175 5.81126 13.8125 6.36451 13.8125C6.91776 13.8125 7.58166 13.175 7.9136 13.0688C11.1224 10.8375 11.0118 10.8375 11.897 10.2V9.5625C11.897 8.9758 11.4015 8.5 10.7905 8.5ZM19.6425 5.3125H8.5775C7.96651 5.3125 7.47101 5.7883 7.47101 6.375V7.4375H10.7905C11.9388 7.4375 12.8856 8.28152 12.9935 9.3573L13.0035 9.35V13.8125H19.6425C20.2535 13.8125 20.749 13.3367 20.749 12.75V6.375C20.749 5.7883 20.2535 5.3125 19.6425 5.3125ZM18.536 9.5625H16.323V7.4375H18.536V9.5625ZM6.36451 6.375C6.36451 5.20326 7.35724 4.25 8.5775 4.25H16.323V1.0625C16.323 0.475801 15.8275 0 15.2165 0H4.15152C3.54053 0 3.04502 0.475801 3.04502 1.0625V7.4375H6.36451V6.375Z" fill="white"/>
</svg>
