<svg width="21" height="20" viewBox="0 0 21 20" fill="none" xmlns="http://www.w3.org/2000/svg">
<path d="M20.181 14.1327L15.8241 12.2577C15.6379 12.178 15.4311 12.1612 15.2346 12.2099C15.0382 12.2585 14.8628 12.3698 14.7348 12.5272L12.8053 14.8944C9.7772 13.4607 7.34023 11.0136 5.91249 7.97283L8.26989 6.0353C8.42692 5.90705 8.53807 5.73091 8.5865 5.53355C8.63493 5.3362 8.61801 5.12837 8.5383 4.94153L6.67106 0.566453C6.58358 0.365046 6.42885 0.200605 6.23356 0.101483C6.03827 0.00236143 5.81466 -0.0252272 5.60128 0.0234743L1.55559 0.960991C1.34987 1.00869 1.16632 1.12501 1.03491 1.29095C0.903502 1.45689 0.831984 1.66266 0.832031 1.87468C0.832031 11.8944 8.91953 20 18.8821 20C19.0933 20.0001 19.2983 19.9284 19.4636 19.7964C19.6289 19.6644 19.7448 19.4801 19.7923 19.2734L20.726 15.2109C20.7741 14.9955 20.7461 14.7701 20.6466 14.5733C20.5471 14.3765 20.3825 14.2207 20.181 14.1327V14.1327Z" fill="white"/>
</svg>
