<svg width="23" height="18" viewBox="0 0 23 18" fill="none" xmlns="http://www.w3.org/2000/svg">
<path d="M17.8112 7.875C15.0863 7.875 12.8818 10.1391 12.8818 12.9375C12.8818 15.7359 15.0863 18 17.8112 18C20.5361 18 22.7406 15.7359 22.7406 12.9375C22.7406 10.1391 20.5361 7.875 17.8112 7.875ZM20.0021 13.159C20.0021 13.3453 19.8514 13.5 19.67 13.5H17.5955C17.4141 13.5 17.2635 13.3453 17.2635 13.159V10.466C17.2635 10.2797 17.4141 10.125 17.5955 10.125H18.0269C18.2083 10.125 18.3589 10.2797 18.3589 10.466V12.375H19.67C19.8514 12.375 20.0021 12.5297 20.0021 12.716V13.159ZM11.7863 12.9375C11.7863 11.9602 12.0157 11.0355 12.4094 10.2129C12.1355 10.1602 11.8548 10.125 11.5673 10.125H10.9956C10.2356 10.4836 9.39008 10.6875 8.50005 10.6875C7.61001 10.6875 6.7679 10.4836 6.00452 10.125H5.43284C2.89281 10.125 0.832031 12.2414 0.832031 14.85V16.3125C0.832031 17.2441 1.56802 18 2.47518 18H14.3572C12.8065 16.8785 11.7863 15.0293 11.7863 12.9375ZM8.50005 9C10.9203 9 12.8818 6.98555 12.8818 4.5C12.8818 2.01445 10.9203 0 8.50005 0C6.07983 0 4.11832 2.01445 4.11832 4.5C4.11832 6.98555 6.07983 9 8.50005 9Z" fill="white"/>
</svg>
