<svg width="18" height="21" viewBox="0 0 18 21" fill="none" xmlns="http://www.w3.org/2000/svg">
<path d="M0 19.0312C0 20.1182 0.863839 21 1.92857 21H16.0714C17.1362 21 18 20.1182 18 19.0312V7.875H0V19.0312ZM2.57143 11.1562C2.57143 10.7953 2.86071 10.5 3.21429 10.5H14.7857C15.1393 10.5 15.4286 10.7953 15.4286 11.1562V13.7812C15.4286 14.1422 15.1393 14.4375 14.7857 14.4375H3.21429C2.86071 14.4375 2.57143 14.1422 2.57143 13.7812V11.1562ZM16.0714 2.625H14.1429V0.65625C14.1429 0.295312 13.8536 0 13.5 0H12.2143C11.8607 0 11.5714 0.295312 11.5714 0.65625V2.625H6.42857V0.65625C6.42857 0.295312 6.13929 0 5.78571 0H4.5C4.14643 0 3.85714 0.295312 3.85714 0.65625V2.625H1.92857C0.863839 2.625 0 3.50684 0 4.59375V6.5625H18V4.59375C18 3.50684 17.1362 2.625 16.0714 2.625Z" fill="#8F8F8F"/>
</svg>
